<svg viewBox="0 0 1000 220" width="1000" height="220" xmlns="http://www.w3.org/2000/svg" shape-rendering="crispEdges" font-family="monospace">
  <defs>
    <linearGradient id="bg" x1="0" y1="0" x2="1" y2="1">
      <stop offset="0%" stop-color="#0b0b14"/>
      <stop offset="55%" stop-color="#15152a"/>
      <stop offset="100%" stop-color="#1f1f3a"/>
    </linearGradient>
    <radialGradient id="glow" cx="50%" cy="0%" r="70%">
      <stop offset="0%" stop-color="#C2185B" stop-opacity="0.35"/>
      <stop offset="100%" stop-color="#C2185B" stop-opacity="0"/>
    </radialGradient>
  </defs>
  <rect width="1000" height="220" fill="url(#bg)"/>
  <rect width="1000" height="220" fill="url(#glow)"/>
  <!-- faint grid -->
  <g stroke="#C2185B" stroke-opacity="0.08" stroke-width="1">
    <line x1="0" y1="55" x2="1000" y2="55"/><line x1="0" y1="110" x2="1000" y2="110"/><line x1="0" y1="165" x2="1000" y2="165"/>
    <line x1="200" y1="0" x2="200" y2="220"/><line x1="400" y1="0" x2="400" y2="220"/><line x1="600" y1="0" x2="600" y2="220"/><line x1="800" y1="0" x2="800" y2="220"/>
  </g>
  <!-- web threads from corner -->
  <g stroke="#34344f" stroke-width="1.5" fill="none" opacity="0.5">
    <path d="M0 0 L120 70"/><path d="M0 0 L70 130"/><path d="M0 0 L150 150"/>
    <path d="M40 28 Q90 60 60 95"/><path d="M70 50 Q120 80 95 125"/>
  </g>
  <!-- Coby mascot, scaled -->
  <g transform="translate(120,52) scale(1.05)">
    <rect x="47" y="-40" width="2" height="50" fill="#34344f"/>
    <rect x="6" y="54" width="6" height="6" fill="#34344f"/><rect x="12" y="48" width="6" height="6" fill="#34344f"/><rect x="18" y="54" width="6" height="6" fill="#34344f"/>
    <rect x="6" y="66" width="6" height="6" fill="#34344f"/><rect x="12" y="72" width="6" height="6" fill="#34344f"/><rect x="18" y="66" width="6" height="6" fill="#34344f"/>
    <rect x="72" y="48" width="6" height="6" fill="#E91E8C"/><rect x="78" y="42" width="6" height="6" fill="#E91E8C"/><rect x="84" y="48" width="6" height="6" fill="#E91E8C"/>
    <rect x="72" y="66" width="6" height="6" fill="#34344f"/><rect x="78" y="72" width="6" height="6" fill="#34344f"/><rect x="84" y="66" width="6" height="6" fill="#34344f"/>
    <rect x="30" y="36" width="36" height="6" fill="#34344f"/><rect x="30" y="78" width="36" height="6" fill="#34344f"/>
    <rect x="24" y="42" width="6" height="36" fill="#34344f"/><rect x="66" y="42" width="6" height="36" fill="#34344f"/>
    <rect x="30" y="42" width="36" height="36" fill="#15152a"/><rect x="30" y="42" width="36" height="12" fill="#1f1f3a"/>
    <rect x="36" y="54" width="12" height="12" fill="#e8e8f5"/><rect x="54" y="54" width="12" height="12" fill="#e8e8f5"/>
    <rect x="42" y="60" width="6" height="6" fill="#0b0b14"/><rect x="60" y="60" width="6" height="6" fill="#0b0b14"/>
    <rect x="42" y="72" width="18" height="6" fill="#E91E8C"/>
  </g>
  <!-- wordmark -->
  <text x="270" y="98" font-size="62" font-weight="bold" fill="#E91E8C" letter-spacing="2">CobWeb</text>
  <text x="272" y="138" font-size="20" fill="#8888a8" letter-spacing="4">ON-CHAIN INTELLIGENCE FOR SOLANA</text>
  <text x="272" y="170" font-size="15" fill="#22d3ee" letter-spacing="1">smart money · cabal detection · copy-trade arena</text>
</svg>
