<svg viewBox="0 0 96 108" width="120" height="135" xmlns="http://www.w3.org/2000/svg" shape-rendering="crispEdges">
  <!-- thread -->
  <rect x="47" y="0" width="2" height="18" fill="#34344f"/>
  <!-- legs left -->
  <rect x="6" y="54" width="6" height="6" fill="#34344f"/><rect x="12" y="48" width="6" height="6" fill="#34344f"/><rect x="18" y="54" width="6" height="6" fill="#34344f"/>
  <rect x="6" y="66" width="6" height="6" fill="#34344f"/><rect x="12" y="72" width="6" height="6" fill="#34344f"/><rect x="18" y="66" width="6" height="6" fill="#34344f"/>
  <!-- legs right (waving one in pink) -->
  <rect x="72" y="48" width="6" height="6" fill="#E91E8C"/><rect x="78" y="42" width="6" height="6" fill="#E91E8C"/><rect x="84" y="48" width="6" height="6" fill="#E91E8C"/>
  <rect x="72" y="66" width="6" height="6" fill="#34344f"/><rect x="78" y="72" width="6" height="6" fill="#34344f"/><rect x="84" y="66" width="6" height="6" fill="#34344f"/>
  <!-- body outline -->
  <rect x="30" y="36" width="36" height="6" fill="#34344f"/>
  <rect x="30" y="78" width="36" height="6" fill="#34344f"/>
  <rect x="24" y="42" width="6" height="36" fill="#34344f"/>
  <rect x="66" y="42" width="6" height="36" fill="#34344f"/>
  <!-- body fill -->
  <rect x="30" y="42" width="36" height="36" fill="#15152a"/>
  <rect x="30" y="42" width="36" height="12" fill="#1f1f3a"/>
  <!-- eyes -->
  <rect x="36" y="54" width="12" height="12" fill="#e8e8f5"/>
  <rect x="54" y="54" width="12" height="12" fill="#e8e8f5"/>
  <rect x="42" y="60" width="6" height="6" fill="#0b0b14"/>
  <rect x="60" y="60" width="6" height="6" fill="#0b0b14"/>
  <!-- smile -->
  <rect x="42" y="72" width="18" height="6" fill="#E91E8C"/>
</svg>
